# xmcd
#
# Track frame offsets: 
#        150
#        13694
#        22958
#        35668
#        50808
#        68858
#        96229
#        107201
#        118763
#        130678
#
# Disc length: 2100 seconds
#
# Revision: 0
# Processed by: cddbd v1.4PL0 Copyright (c) Steve Scherf et al.
# Submitted via: ExactAudioCopy v0.90b2
#
DISCID=8908320a
DTITLE=Jimmy Dean - Greatest Hits (Front Row Entertainment)
DYEAR=1900
DGENRE=Country
TTITLE0=Big Bad John
TTITLE1=The First Thing Ev'ry Morning (And The Last Thing Ev'ry Night)
TTITLE2=Bumming Around
TTITLE3=P.T. 109
TTITLE4=Dear Ivan
TTITLE5=I.O.U
TTITLE6=Little Black Book
TTITLE7=The Cajun Queen
TTITLE8=Stand Beside Me
TTITLE9=To A Sleeping Beauty
EXTD=
EXTT0=
EXTT1=
EXTT2=
EXTT3=
EXTT4=
EXTT5=
EXTT6=
EXTT7=
EXTT8=
EXTT9=
PLAYORDER=
